<?xml version="1.0" ?><svg id="Layer_1" style="enable-background:new 0 0 128 128;" version="1.1" viewBox="0 0 128 128" xml:space="preserve" xmlns="http://www.w3.org/2000/svg" xmlns:xlink="http://www.w3.org/1999/xlink"><style type="text/css">
	.st0{fill:#F4DA80;}
	.st1{fill:#FFFFFF;}
	.st2{fill:#474F5A;}
	.st3{fill:#01B0C1;}
	.st4{fill:#FF876C;}
	.st5{fill:none;stroke:#474F5A;stroke-width:0.25;stroke-miterlimit:10;}
	.st6{fill:#C0E5B5;}
	.st7{fill:#EFF2F4;}
	.st8{fill:#D4DDDD;}
	.st9{fill:#F0C041;}
	.st10{fill:#83CF8F;}
	.st11{fill:#01C6DA;}
	.st12{fill:#30363D;}
	.st13{fill:none;}
	.st14{fill:#FADE8A;}
	.st15{fill:#F2D37C;}
</style><g><circle class="st11" cx="64" cy="64" r="63.5"/><g><rect class="st4" height="80" width="64.2" x="31.9" y="26.6"/><rect class="st1" height="70.1" width="53.6" x="37.2" y="31.4"/><path class="st2" d="M69.3,23.8v-0.9c0-2.9-2.4-5.3-5.3-5.3c-2.9,0-5.3,2.4-5.3,5.3v0.9h-7.9v12h26.5v-12H69.3z"/><rect class="st0" height="10.2" width="10.2" x="42.6" y="47.2"/><rect class="st0" height="10.2" width="10.2" x="42.6" y="61.6"/><rect class="st0" height="10.2" width="10.2" x="42.6" y="75.9"/><rect class="st3" height="2.6" width="30.2" x="57" y="51"/><rect class="st3" height="2.6" width="30.2" x="57" y="65.7"/><rect class="st3" height="2.6" width="30.2" x="57" y="80.4"/><polygon class="st2" points="51.6,50.1 50.7,49.2 46.3,53.7 44.6,52 43.7,52.9 46.3,55.4 47.1,54.5 47.1,54.5   "/><polygon class="st2" points="51.6,64.2 50.7,63.3 46.3,67.8 44.6,66.2 43.7,67 46.3,69.5 47.1,68.7 47.1,68.7   "/><polygon class="st2" points="51.6,78.4 50.7,77.5 46.3,82 44.6,80.3 43.7,81.2 46.3,83.7 47.1,82.8 47.1,82.8   "/></g></g></svg>